<svg xmlns="http://www.w3.org/2000/svg" xmlns:xlink="http://www.w3.org/1999/xlink" aria-hidden="true" role="img" class="iconify iconify--logos" width="35.93" height="32" preserveAspectRatio="xMidYMid meet" viewBox="0 0 256 228"><path fill="#00D8FF" d="M210.483 73.824a171.49 171.49 0 0 0-8.24-2.597c.465-1.9.893-3.777 1.273-5.621c6.238-30.281 2.16-54.676-11.769-62.708c-13.355-7.7-35.196.329-57.254 19.526a171.23 171.23 0 0 0-6.375 5.848a155.866 155.866 0 0 0-4.241-3.917C100.759 3.829 77.587-4.822 63.673 3.233C50.33 10.957 46.379 33.89 51.995 62.588a170.974 170.974 0 0 0 1.892 8.48c-3.28.932-6.445 1.924-9.474 2.98C17.309 83.498 0 98.307 0 113.668c0 15.865 18.582 31.778 46.812 41.427a145.52 145.52 0 0 0 6.921 2.165a167.467 167.467 0 0 0-2.01 9.138c-5.354 28.2-1.173 50.591 12.134 58.266c13.744 7.926 36.812-.22 59.273-19.855a145.567 145.567 0 0 0 5.342-4.923a168.064 168.064 0 0 0 6.92 6.314c21.758 18.722 43.246 26.282 56.54 18.586c13.731-7.949 18.194-32.003 12.4-61.268a145.016 145.016 0 0 0-1.535-6.842c1.62-.48 3.21-.974 4.76-1.488c29.348-9.723 48.443-25.443 48.443-41.52c0-15.417-17.868-30.326-45.517-39.844Zm-6.365 70.984c-1.4.463-2.836.91-4.3 1.345c-3.24-10.257-7.612-21.163-12.963-32.432c5.106-11 9.31-21.767 12.459-31.957c2.619.758 5.16 1.557 7.61 2.4c23.69 8.156 38.14 20.213 38.14 29.504c0 9.896-15.606 22.743-40.946 31.14Zm-10.514 20.834c2.562 12.94 2.927 24.64 1.23 33.787c-1.524 8.219-4.59 13.698-8.382 15.893c-8.067 4.67-25.32-1.4-43.927-17.412a156.726 156.726 0 0 1-6.437-5.87c7.214-7.889 14.423-17.06 21.459-27.246c12.376-1.098 24.068-2.894 34.671-5.345a134.17 134.17 0 0 1 1.386 6.193ZM87.276 214.515c-7.882 2.783-14.16 2.863-17.955.675c-8.075-4.657-11.432-22.636-6.853-46.752a156.923 156.923 0 0 1 1.869-8.499c10.486 2.32 22.093 3.988 34.498 4.994c7.084 9.967 14.501 19.128 21.976 27.15a134.668 134.668 0 0 1-4.877 4.492c-9.933 8.682-19.886 14.842-28.658 17.94ZM50.35 144.747c-12.483-4.267-22.792-9.812-29.858-15.863c-6.35-5.437-9.555-10.836-9.555-15.216c0-9.322 13.897-21.212 37.076-29.293c2.813-.98 5.757-1.905 8.812-2.773c3.204 10.42 7.406 21.315 12.477 32.332c-5.137 11.18-9.399 22.249-12.634 32.792a134.718 134.718 0 0 1-6.318-1.979Zm12.378-84.26c-4.811-24.587-1.616-43.134 6.425-47.789c8.564-4.958 27.502 2.111 47.463 19.835a144.318 144.318 0 0 1 3.841 3.545c-7.438 7.987-14.787 17.08-21.808 26.988c-12.04 1.116-23.565 2.908-34.161 5.309a160.342 160.342 0 0 1-1.76-7.887Zm110.427 27.268a347.8 347.8 0 0 0-7.785-12.803c8.168 1.033 15.994 2.404 23.343 4.08c-2.206 7.072-4.956 14.465-8.193 22.045a381.151 381.151 0 0 0-7.365-13.322Zm-45.032-43.861c5.044 5.465 10.096 11.566 15.065 18.186a322.04 322.04 0 0 0-30.257-.006c4.974-6.559 10.069-12.652 15.192-18.18ZM82.802 87.83a323.167 323.167 0 0 0-7.227 13.238c-3.184-7.553-5.909-14.98-8.134-22.152c7.304-1.634 15.093-2.97 23.209-3.984a321.524 321.524 0 0 0-7.848 12.897Zm8.081 65.352c-8.385-.936-16.291-2.203-23.593-3.793c2.26-7.3 5.045-14.885 8.298-22.6a321.187 321.187 0 0 0 7.257 13.246c2.594 4.48 5.28 8.868 8.038 13.147Zm37.542 31.03c-5.184-5.592-10.354-11.779-15.403-18.433c4.902.192 9.899.29 14.978.29c5.218 0 10.376-.117 15.453-.343c-4.985 6.774-10.018 12.97-15.028 18.486Zm52.198-57.817c3.422 7.8 6.306 15.345 8.596 22.52c-7.422 1.694-15.436 3.058-23.88 4.071a382.417 382.417 0 0 0 7.859-13.026a347.403 347.403 0 0 0 7.425-13.565Zm-16.898 8.101a358.557 358.557 0 0 1-12.281 19.815a329.4 329.4 0 0 1-23.444.823c-7.967 0-15.716-.248-23.178-.732a310.202 310.202 0 0 1-12.513-19.846h.001a307.41 307.41 0 0 1-10.923-20.627a310.278 310.278 0 0 1 10.89-20.637l-.001.001a307.318 307.318 0 0 1 12.413-19.761c7.613-.576 15.42-.876 23.31-.876H128c7.926 0 15.743.303 23.354.883a329.357 329.357 0 0 1 12.335 19.695a358.489 358.489 0 0 1 11.036 20.54a329.472 329.472 0 0 1-11 20.722Zm22.56-122.124c8.572 4.944 11.906 24.881 6.52 51.026c-.344 1.668-.73 3.367-1.15 5.09c-10.622-2.452-22.155-4.275-34.23-5.408c-7.034-10.017-14.323-19.124-21.64-27.008a160.789 160.789 0 0 1 5.888-5.4c18.9-16.447 36.564-22.941 44.612-18.3ZM128 90.808c12.625 0 22.86 10.235 22.86 22.86s-10.235 22.86-22.86 22.86s-22.86-10.235-22.86-22.86s10.235-22.86 22.86-22.86Z"></path>
<defs>
<!-- everything work -->


<symbol id="eye"  viewBox="0 0 20 20">
<path d="M0.833008 9.99998C0.833008 9.99998 4.16634 3.33331 9.99967 3.33331C15.833 3.33331 19.1663 9.99998 19.1663 9.99998C19.1663 9.99998 15.833 16.6666 9.99967 16.6666C4.16634 16.6666 0.833008 9.99998 0.833008 9.99998Z" stroke="#2F2F2F" stroke-width="1.8" stroke-linecap="round" stroke-linejoin="round" fill="none"/>
<path d="M10 12.5C11.3807 12.5 12.5 11.3807 12.5 10C12.5 8.61929 11.3807 7.5 10 7.5C8.61929 7.5 7.5 8.61929 7.5 10C7.5 11.3807 8.61929 12.5 10 12.5Z" stroke="#2F2F2F" stroke-width="1.8" fill="none"/>
</symbol>

<symbol id="eyeOff" viewBox="0 0 20 20">
<path d="M14.9497 14.9499C13.5252 16.0358 11.7906 16.6373 9.99968 16.6666C4.16634 16.6666 0.833008 9.99994 0.833008 9.99994C1.86958 8.06819 3.30729 6.38045 5.04967 5.04994M8.24968 3.53327C8.82329 3.39901 9.41056 3.33189 9.99968 3.33327C15.833 3.33327 19.1663 9.99994 19.1663 9.99994C18.6605 10.9463 18.0572 11.8372 17.3663 12.6583M11.7663 11.7666C11.5375 12.0122 11.2615 12.2092 10.9548 12.3459C10.6481 12.4825 10.3171 12.556 9.98142 12.5619C9.64574 12.5678 9.31231 12.5061 9.00102 12.3803C8.68972 12.2546 8.40694 12.0675 8.16955 11.8301C7.93215 11.5927 7.745 11.3099 7.61927 10.9986C7.49353 10.6873 7.43178 10.3539 7.4377 10.0182C7.44363 9.68252 7.5171 9.35148 7.65374 9.04481C7.79038 8.73815 7.98739 8.46215 8.23301 8.23327" stroke="#2F2F2F" stroke-width="1.8" stroke-linecap="round" stroke-linejoin="round" fill="none"/>
<path d="M0.833008 0.833374L19.1663 19.1667" stroke="#2F2F2F" stroke-width="1.8" stroke-linecap="round" stroke-linejoin="round"  />
</symbol>


<symbol id="logOut" viewBox="0 0 16 16">
<path d="M6 14H3.33333C2.97971 14 2.64057 13.8595 2.39052 13.6095C2.14048 13.3594 2 13.0203 2 12.6667V3.33333C2 2.97971 2.14048 2.64057 2.39052 2.39052C2.64057 2.14048 2.97971 2 3.33333 2H6"  stroke-width="1.5" stroke-linecap="round" stroke-linejoin="round" fill="none"/>
<path d="M10.667 11.3334L14.0003 8.00002L10.667 4.66669"  stroke-width="1.5" stroke-linecap="round" stroke-linejoin="round" fill="none"/>
<path d="M14 8H6"  stroke-width="1.5" stroke-linecap="round" stroke-linejoin="round"/>
</symbol>

<symbol id="pieChart" viewBox="0 0 24 24">
<path d="M17.2 14C17.477 14 17.6155 14 17.7278 14.0615C17.8204 14.1122 17.9065 14.2075 17.9478 14.3047C17.9978 14.4225 17.9852 14.5479 17.96 14.7987C17.8296 16.0987 17.3822 17.3514 16.6518 18.4445C15.7727 19.7601 14.5233 20.7855 13.0615 21.391C11.5997 21.9965 9.99113 22.1549 8.43928 21.8463C6.88743 21.5376 5.46197 20.7756 4.34315 19.6568C3.22433 18.538 2.4624 17.1125 2.15372 15.5607C1.84504 14.0088 2.00347 12.4003 2.60897 10.9385C3.21447 9.4767 4.23985 8.22727 5.55544 7.34822C6.64856 6.61782 7.90125 6.17038 9.20131 6.03994C9.45207 6.01478 9.57745 6.0022 9.69528 6.05219C9.79249 6.09343 9.88776 6.17962 9.9385 6.27222C10 6.38448 10 6.52298 10 6.79998V13.2C10 13.48 10 13.62 10.0545 13.727C10.1024 13.8211 10.1789 13.8975 10.273 13.9455C10.38 14 10.52 14 10.8 14H17.2Z" stroke="#323F47" stroke-width="2" stroke-linecap="round" stroke-linejoin="round" fill="none"/>
<path d="M14 2.79999C14 2.52298 14 2.38448 14.0615 2.27223C14.1122 2.17963 14.2075 2.09344 14.3047 2.0522C14.4225 2.0022 14.5479 2.01478 14.7987 2.03993C16.6271 2.22333 18.346 3.03229 19.6569 4.34313C20.9677 5.65398 21.7767 7.37289 21.9601 9.20129C21.9852 9.45206 21.9978 9.57744 21.9478 9.69527C21.9066 9.79248 21.8204 9.88774 21.7278 9.93848C21.6155 9.99998 21.477 9.99999 21.2 9.99999L14.8 9.99999C14.52 9.99999 14.38 9.99999 14.273 9.94549C14.1789 9.89755 14.1024 9.82106 14.0545 9.72698C14 9.62003 14 9.48001 14 9.19999L14 2.79999Z"  stroke-width="2" stroke-linecap="round" stroke-linejoin="round" fill="none"/>
</symbol>

  
<symbol id="settings" viewBox="0 0 16 16">
<path d="M8 10C9.10457 10 10 9.10457 10 8C10 6.89543 9.10457 6 8 6C6.89543 6 6 6.89543 6 8C6 9.10457 6.89543 10 8 10Z"  stroke-width="1.5" stroke-linecap="round" stroke-linejoin="round" fill="none"/>
<path d="M12.9337 10C12.8449 10.2011 12.8184 10.4242 12.8577 10.6404C12.8969 10.8567 13 11.0562 13.1537 11.2134L13.1937 11.2534C13.3176 11.3772 13.416 11.5242 13.4831 11.6861C13.5502 11.848 13.5847 12.0215 13.5847 12.1967C13.5847 12.3719 13.5502 12.5454 13.4831 12.7073C13.416 12.8691 13.3176 13.0162 13.1937 13.14C13.0698 13.264 12.9228 13.3623 12.7609 13.4294C12.599 13.4965 12.4255 13.5311 12.2503 13.5311C12.0751 13.5311 11.9016 13.4965 11.7397 13.4294C11.5779 13.3623 11.4308 13.264 11.307 13.14L11.267 13.1C11.1099 12.9463 10.9103 12.8432 10.6941 12.804C10.4778 12.7648 10.2547 12.7913 10.0537 12.88C9.85648 12.9645 9.68832 13.1049 9.56986 13.2837C9.45141 13.4626 9.38785 13.6722 9.38699 13.8867V14C9.38699 14.3536 9.24652 14.6928 8.99647 14.9428C8.74642 15.1929 8.40728 15.3334 8.05366 15.3334C7.70004 15.3334 7.3609 15.1929 7.11085 14.9428C6.8608 14.6928 6.72033 14.3536 6.72033 14V13.94C6.71516 13.7194 6.64374 13.5054 6.51533 13.3258C6.38693 13.1463 6.20748 13.0095 6.00033 12.9334C5.79925 12.8446 5.5762 12.8181 5.35993 12.8574C5.14367 12.8966 4.94411 12.9997 4.78699 13.1534L4.74699 13.1934C4.62316 13.3173 4.47611 13.4157 4.31425 13.4828C4.15238 13.5499 3.97888 13.5844 3.80366 13.5844C3.62844 13.5844 3.45494 13.5499 3.29307 13.4828C3.13121 13.4157 2.98416 13.3173 2.86033 13.1934C2.73636 13.0695 2.63801 12.9225 2.57091 12.7606C2.50381 12.5987 2.46928 12.4252 2.46928 12.25C2.46928 12.0748 2.50381 11.9013 2.57091 11.7394C2.63801 11.5776 2.73636 11.4305 2.86033 11.3067L2.90033 11.2667C3.05402 11.1096 3.15712 10.91 3.19633 10.6937C3.23554 10.4775 3.20907 10.2544 3.12033 10.0534C3.03582 9.85618 2.8955 9.68801 2.71664 9.56956C2.53778 9.45111 2.32818 9.38754 2.11366 9.38669H2.00033C1.6467 9.38669 1.30757 9.24621 1.05752 8.99616C0.807468 8.74611 0.666992 8.40698 0.666992 8.05335C0.666992 7.69973 0.807468 7.36059 1.05752 7.11055C1.30757 6.8605 1.6467 6.72002 2.00033 6.72002H2.06033C2.28099 6.71486 2.495 6.64343 2.67453 6.51503C2.85405 6.38662 2.9908 6.20718 3.06699 6.00002C3.15574 5.79894 3.18221 5.57589 3.143 5.35963C3.10378 5.14337 3.00068 4.94381 2.84699 4.78669L2.80699 4.74669C2.68302 4.62286 2.58468 4.47581 2.51758 4.31394C2.45048 4.15208 2.41594 3.97857 2.41594 3.80335C2.41594 3.62813 2.45048 3.45463 2.51758 3.29277C2.58468 3.1309 2.68302 2.98385 2.80699 2.86002C2.93082 2.73605 3.07787 2.63771 3.23974 2.57061C3.4016 2.50351 3.57511 2.46897 3.75033 2.46897C3.92555 2.46897 4.09905 2.50351 4.26091 2.57061C4.42278 2.63771 4.56983 2.73605 4.69366 2.86002L4.73366 2.90002C4.89078 3.05371 5.09034 3.15681 5.3066 3.19602C5.52286 3.23524 5.74592 3.20876 5.94699 3.12002H6.00033C6.19751 3.03551 6.36567 2.89519 6.48412 2.71633C6.60257 2.53747 6.66614 2.32788 6.66699 2.11335V2.00002C6.66699 1.6464 6.80747 1.30726 7.05752 1.05721C7.30757 0.807163 7.6467 0.666687 8.00033 0.666687C8.35395 0.666687 8.69309 0.807163 8.94314 1.05721C9.19318 1.30726 9.33366 1.6464 9.33366 2.00002V2.06002C9.33452 2.27454 9.39808 2.48414 9.51653 2.663C9.63498 2.84186 9.80315 2.98218 10.0003 3.06669C10.2014 3.15543 10.4245 3.1819 10.6407 3.14269C10.857 3.10348 11.0565 3.00038 11.2137 2.84669L11.2537 2.80669C11.3775 2.68272 11.5245 2.58437 11.6864 2.51727C11.8483 2.45018 12.0218 2.41564 12.197 2.41564C12.3722 2.41564 12.5457 2.45018 12.7076 2.51727C12.8694 2.58437 13.0165 2.68272 13.1403 2.80669C13.2643 2.93052 13.3626 3.07757 13.4297 3.23943C13.4968 3.4013 13.5314 3.5748 13.5314 3.75002C13.5314 3.92524 13.4968 4.09874 13.4297 4.26061C13.3626 4.42247 13.2643 4.56952 13.1403 4.69335L13.1003 4.73335C12.9466 4.89047 12.8435 5.09003 12.8043 5.30629C12.7651 5.52256 12.7916 5.74561 12.8803 5.94669V6.00002C12.9648 6.1972 13.1052 6.36537 13.284 6.48382C13.4629 6.60227 13.6725 6.66583 13.887 6.66669H14.0003C14.3539 6.66669 14.6931 6.80716 14.9431 7.05721C15.1932 7.30726 15.3337 7.6464 15.3337 8.00002C15.3337 8.35364 15.1932 8.69278 14.9431 8.94283C14.6931 9.19288 14.3539 9.33335 14.0003 9.33335H13.9403C13.7258 9.33421 13.5162 9.39778 13.3374 9.51623C13.1585 9.63468 13.0182 9.80284 12.9337 10Z"  stroke-width="1.5" stroke-linecap="round" stroke-linejoin="round" fill="none"/>
</symbol>

<symbol id="trash" viewBox="0 0 16 16">
<path d="M6 2H10" stroke="#323F47" stroke-width="1.5" stroke-linecap="round" stroke-linejoin="round" />
<path d="M2 4H14M12.6667 4L12.1991 11.0129C12.129 12.065 12.0939 12.5911 11.8667 12.99C11.6666 13.3412 11.3648 13.6235 11.0011 13.7998C10.588 14 10.0607 14 9.00623 14H6.99377C5.93927 14 5.41202 14 4.99889 13.7998C4.63517 13.6235 4.33339 13.3412 4.13332 12.99C3.90607 12.5911 3.871 12.065 3.80086 11.0129L3.33333 4" stroke="#323F47" stroke-width="1.8" stroke-linecap="round" stroke-linejoin="round" fill="none"/>
</symbol>


<symbol id="upload" viewBox="0 0 20 20">
<path d="M17.5 12.5V15.8333C17.5 16.2754 17.3244 16.6993 17.0118 17.0118C16.6993 17.3244 16.2754 17.5 15.8333 17.5H4.16667C3.72464 17.5 3.30072 17.3244 2.98816 17.0118C2.67559 16.6993 2.5 16.2754 2.5 15.8333V12.5" stroke="#2F2F2F" stroke-width="1.8" stroke-linecap="round" stroke-linejoin="round" fill="none"/>
<path d="M14.1663 6.66667L9.99967 2.5L5.83301 6.66667" stroke="#2F2F2F" stroke-width="1.8" stroke-linecap="round" stroke-linejoin="round" fill="none"/>
<path d="M10 2.5V12.5" stroke="#2F2F2F" stroke-width="1.8" stroke-linecap="round" stroke-linejoin="round" />
</symbol>

<symbol id="x-close" viewBox="0 0 28 28">
<path d="M21 7L7 21"  stroke-width="3" stroke-linecap="round" stroke-linejoin="round"/>
<path d="M7 7L21 21"  stroke-width="3" stroke-linecap="round" stroke-linejoin="round"/>
</symbol>

<symbol id="edit" viewBox="0 0 16 16">
<path d="M11.333 1.99998C11.5081 1.82488 11.716 1.68599 11.9447 1.59123C12.1735 1.49647 12.4187 1.44769 12.6663 1.44769C12.914 1.44769 13.1592 1.49647 13.3879 1.59123C13.6167 1.68599 13.8246 1.82488 13.9997 1.99998C14.1748 2.17507 14.3137 2.38294 14.4084 2.61172C14.5032 2.84049 14.552 3.08569 14.552 3.33331C14.552 3.58093 14.5032 3.82613 14.4084 4.05491C14.3137 4.28368 14.1748 4.49155 13.9997 4.66664L4.99967 13.6666L1.33301 14.6666L2.33301 11L11.333 1.99998Z" stroke="#323F47" stroke-width="1.8" stroke-linecap="round" stroke-linejoin="round" fill="none"/>
</symbol>

<symbol id="icon-edit" viewBox="0 0 32 32">
<path stroke-linejoin="round" stroke-linecap="round" stroke-miterlimit="4" stroke-width="3.6" d="M22.668 4c0.676-0.646 1.594-1.044 2.605-1.044 2.083 0 3.772 1.689 3.772 3.772 0 1.011-0.398 1.93-1.046 2.607l0.001-0.001-18 18-7.334 2 2-7.334 18-18z"></path>
</symbol>

<symbol id="icon-water-glass" viewBox="0 0 31 32">
<path  d="M26.955 5.226c-0.1-0.335-0.261-0.625-0.471-0.871l0.003 0.003c-0.21-0.246-0.467-0.446-0.759-0.584l-0.014-0.006c-0.293-0.142-0.613-0.213-0.937-0.21h-18.216c-0.031-0.002-0.068-0.003-0.105-0.003-0.304 0-0.59 0.074-0.842 0.205l0.010-0.005c-0.301 0.139-0.57 0.345-0.785 0.604-0.207 0.243-0.368 0.532-0.464 0.849l-0.004 0.017c-0.097 0.317-0.128 0.654-0.088 0.984l2.076 18.377c0.143 1.294 0.742 2.427 1.63 3.253l0.003 0.003c0.846 0.805 1.991 1.303 3.251 1.313h8.862c1.267-0.009 2.416-0.507 3.268-1.315l-0.002 0.002c0.878-0.836 1.47-1.965 1.618-3.231l0.002-0.025 1.126-10.33v-0.158l0.873-7.876c0.049-0.332 0.036-0.671-0.038-0.998zM14.17 25.375h-1.266c-0.861-0.053-1.63-0.403-2.217-0.948l0.002 0.002c-0.599-0.564-1.011-1.321-1.137-2.171l-0.002-0.020-0.304-2.258c-0.006-0.047-0.009-0.101-0.009-0.156 0-0.305 0.1-0.586 0.269-0.812l-0.003 0.004c0.204-0.274 0.504-0.455 0.835-0.503 0.053-0.008 0.114-0.013 0.176-0.013 0.287 0 0.552 0.097 0.762 0.261l-0.003-0.002c0.27 0.206 0.45 0.512 0.503 0.854l0.304 2.231c0.034 0.244 0.151 0.467 0.329 0.63 0.177 0.169 0.405 0.266 0.646 0.276h1.266c0.336 0 0.658 0.138 0.895 0.384s0.37 0.58 0.37 0.929-0.133 0.682-0.37 0.928c-0.226 0.236-0.543 0.383-0.895 0.384h-0.152zM24.297 13.259c-2.671 0.538-4.949 0.643-7.367-1.313-3-2.455-6.633-1.668-10.126-0.38l-0.633-5.566c-0.006-0.026-0.009-0.055-0.009-0.085s0.003-0.060 0.010-0.088l-0 0.003c0.018-0.057 0.048-0.105 0.088-0.144l0-0c0.030-0.048 0.073-0.084 0.125-0.105l0.002-0.001c0.050-0.014 0.102-0.014 0.151 0h18.381c0.049 0.029 0.091 0.064 0.126 0.105l0.001 0.001c0.036 0.039 0.063 0.088 0.075 0.142l0 0.002c0.009 0.027 0.014 0.059 0.014 0.092s-0.005 0.064-0.015 0.094l0.001-0.002-0.823 7.246z"></path>
</symbol>

<symbol id="icon-plus" viewBox="0 0 32 32">
<path  stroke-linejoin="round" stroke-linecap="round" stroke-miterlimit="4" stroke-width="2.6667" d="M16 6.667v18.667M6.667 16h18.667"></path>
</symbol>

<symbol id="icon-minus" viewBox="0 0 203 32">
<path stroke-linejoin="round" stroke-linecap="round" stroke-miterlimit="4" stroke-width="19.2" d="M19.424 16h163.808"></path>
</symbol>

<symbol id="elipce" viewBox="0 0 12 12">
<circle cx="6" cy="6" r="5.5" fill="white" stroke="#9BE1A0"/>
</symbol>

<symbol id="icon-england" viewBox="0 0 32 32">
<path fill="#1e50a0" style="fill: var(--color1, #1e50a0)" d="M2.222 7.556h27.556v16.889h-27.556z"></path>
<path fill="#fff" style="fill: var(--color2, #fff)" d="M17.778 12.825v1.397h4.525l7.475-4.582v-2.085h-3.402z"></path>
<path fill="#d22f27" style="fill: var(--color3, #d22f27)" d="M29.778 7.556h-1.701l-10.299 6.312v0.354h1.548l10.452-6.406z"></path>
<path fill="#fff" style="fill: var(--color2, #fff)" d="M26.376 24.444h3.401v-2.085l-7.475-4.581h-4.525v1.397z"></path>
<path fill="#d22f27" style="fill: var(--color3, #d22f27)" d="M29.778 24.444v-1.043l-9.176-5.624h-2.128l10.877 6.667z"></path>
<path fill="#fff" style="fill: var(--color2, #fff)" d="M14.222 19.175v-1.397h-4.525l-7.475 4.582v2.085h3.402z"></path>
<path fill="#d22f27" style="fill: var(--color3, #d22f27)" d="M2.222 24.444h1.701l10.299-6.312v-0.354h-1.548l-10.452 6.406z"></path>
<path fill="#fff" style="fill: var(--color2, #fff)" d="M5.624 7.556h-3.401v2.085l7.475 4.581h4.525v-1.397z"></path>
<path fill="#d22f27" style="fill: var(--color3, #d22f27)" d="M2.222 7.556v1.043l9.176 5.624h2.127l-10.877-6.667z"></path>
<path fill="#fff" style="fill: var(--color2, #fff)" d="M2.222 13.778h27.556v4.444h-27.556z"></path>
<path fill="#fff" style="fill: var(--color2, #fff)" d="M13.778 7.556h4.444v16.889h-4.444z"></path>
<path fill="#d22f27" style="fill: var(--color3, #d22f27)" d="M2.222 14.667h27.556v2.667h-27.556z"></path>
<path fill="#d22f27" style="fill: var(--color3, #d22f27)" d="M14.667 7.556h2.667v16.889h-2.667z"></path>
<path fill="none" stroke="#000" style="stroke: var(--color4, #000)" stroke-linejoin="round" stroke-linecap="round" stroke-miterlimit="4" stroke-width="0.8889" d="M2.222 7.556h27.556v16.889h-27.556z"></path>
</symbol>

<symbol id="icon-ukraine" viewBox="0 0 43 32">
<path fill="#ffd500" style="fill: var(--color5, #ffd500)" d="M0 0h42.667v32h-42.667z"></path>
<path fill="#005bbb" style="fill: var(--color6, #005bbb)" d="M0 0h42.667v16h-42.667z"></path>
</symbol>

<symbol id="icon-water-bottle-red" viewBox="0 0 32 32">
<path fill="#f24a4a" style="fill: var(--color1, #f24a4a)" d="M27.942 9.965l-5.907-5.907 3.446-3.446c0.816-0.816 2.138-0.816 2.953 0l2.953 2.954c0.816 0.816 0.816 2.138 0 2.953l-3.446 3.446z"></path>
<path fill="#f24a4a" style="fill: var(--color1, #f24a4a)" d="M31.388 3.565l-1.477-1.477-4.923 4.923 2.953 2.954 3.446-3.446c0.816-0.816 0.816-2.138 0-2.954z"></path>
<path fill="#f24a4a" style="fill: var(--color1, #f24a4a)" d="M19.82 22.517l-10.337-10.337 4.922-4.922 10.337 10.337-4.922 4.922z"></path>
<path fill="#f24a4a" style="fill: var(--color1, #f24a4a)" d="M19.574 12.426l5.169 5.169-4.922 4.922-5.169-5.169 4.922-4.922z"></path>
<path fill="#f24a4a" style="fill: var(--color1, #f24a4a)" d="M16.128 27.686l-11.814-11.814 3.938-3.938c1.223-1.223 3.207-1.223 4.43 0l7.384 7.384c1.223 1.223 1.223 3.207 0 4.43l-3.938 3.938z"></path>
<path fill="#f24a4a" style="fill: var(--color1, #f24a4a)" d="M20.066 19.317l-3.692-3.692-6.153 6.153 5.907 5.907 3.938-3.938c1.223-1.223 1.223-3.207-0-4.43z"></path>
<path fill="#4da6ff" style="fill: var(--color2, #4da6ff)" d="M22.282 18.579l-8.861-8.861c-0.816-0.816-0.816-2.138 0-2.954l3.692-3.692c2.039-2.039 5.345-2.039 7.384 0l4.43 4.43c2.039 2.039 2.039 5.345 0 7.384l-3.692 3.692c-0.816 0.815-2.138 0.815-2.954-0z"></path>
<path fill="#4596e6" style="fill: var(--color3, #4596e6)" d="M28.927 7.503l-2.215-2.215-8.861 8.861 4.43 4.43c0.816 0.816 2.138 0.816 2.953 0l3.692-3.692c2.039-2.039 2.039-5.345 0-7.384z"></path>
<path fill="#4da6ff" style="fill: var(--color2, #4da6ff)" d="M8.301 31.082l-7.384-7.384c-1.223-1.223-1.223-3.207 0-4.43l4.135-4.135 11.814 11.814-4.135 4.135c-1.223 1.223-3.207 1.223-4.43 0z"></path>
<path fill="#4596e6" style="fill: var(--color3, #4596e6)" d="M4.609 27.39l3.692 3.692c1.223 1.223 3.207 1.223 4.43 0l4.135-4.135-5.907-5.907-6.35 6.35z"></path>
</symbol>

<symbol id="icon-water-bottle-green" viewBox="0 0 32 32">
<path fill="#e6eeff" style="fill: var(--color4, #e6eeff)" d="M27.942 9.965l-5.907-5.907 3.446-3.446c0.816-0.816 2.138-0.816 2.953 0l2.953 2.954c0.816 0.816 0.816 2.138 0 2.953l-3.446 3.446z"></path>
<path fill="#dae2f2" style="fill: var(--color5, #dae2f2)" d="M31.388 3.565l-1.477-1.477-4.923 4.923 2.953 2.954 3.446-3.446c0.816-0.816 0.816-2.138 0-2.954z"></path>
<path fill="#9be1a0" style="fill: var(--color6, #9be1a0)" d="M19.82 22.517l-10.337-10.337 4.922-4.922 10.337 10.337-4.922 4.922z"></path>
<path fill="#87d28d" style="fill: var(--color7, #87d28d)" d="M19.574 12.426l5.169 5.169-4.922 4.922-5.169-5.169 4.922-4.922z"></path>
<path fill="#9be1a0" style="fill: var(--color6, #9be1a0)" d="M16.128 27.686l-11.814-11.814 3.938-3.938c1.223-1.223 3.207-1.223 4.43 0l7.384 7.384c1.223 1.223 1.223 3.207 0 4.43l-3.938 3.938z"></path>
<path fill="#9be1a0" style="fill: var(--color7, #9be1a0)" d="M20.066 19.317l-3.692-3.692-6.153 6.153 5.907 5.907 3.938-3.938c1.223-1.223 1.223-3.207-0-4.43z"></path>
<path fill="#4da6ff" style="fill: var(--color2, #4da6ff)" d="M22.282 18.579l-8.861-8.861c-0.816-0.816-0.816-2.138 0-2.954l3.692-3.692c2.039-2.039 5.345-2.039 7.384 0l4.43 4.43c2.039 2.039 2.039 5.345 0 7.384l-3.692 3.692c-0.816 0.815-2.138 0.815-2.954-0z"></path>
<path fill="#4596e6" style="fill: var(--color3, #4596e6)" d="M28.927 7.503l-2.215-2.215-8.861 8.861 4.43 4.43c0.816 0.816 2.138 0.816 2.953 0l3.692-3.692c2.039-2.039 2.039-5.345 0-7.384z"></path>
<path fill="#4da6ff" style="fill: var(--color2, #4da6ff)" d="M8.301 31.082l-7.384-7.384c-1.223-1.223-1.223-3.207 0-4.43l4.135-4.135 11.814 11.814-4.135 4.135c-1.223 1.223-3.207 1.223-4.43 0z"></path>
<path fill="#4596e6" style="fill: var(--color3, #4596e6)" d="M4.609 27.39l3.692 3.692c1.223 1.223 3.207 1.223 4.43 0l4.135-4.135-5.907-5.907-6.35 6.35z"></path>
</symbol>
</defs>
</svg>