<svg version="1.1" id="Layer_1" xmlns="http://www.w3.org/2000/svg" xmlns:xlink="http://www.w3.org/1999/xlink" viewBox="0 0 512.001 512.001" xml:space="preserve" fill="#000000"><g id="SVGRepo_bgCarrier" stroke-width="0"></g><g id="SVGRepo_tracerCarrier" stroke-linecap="round" stroke-linejoin="round"></g><g id="SVGRepo_iconCarrier"> <path style="fill:#9be1a0;" d="M447.081,159.433L352.567,64.92L407.7,9.787c13.05-13.05,34.208-13.05,47.256,0l47.256,47.256 c13.05,13.05,13.05,34.208,0,47.256L447.081,159.433z"></path> <path style="fill:#87d28d;" d="M502.213,57.044l-23.628-23.628l-78.762,78.762l47.256,47.256l55.132-55.132 C515.263,91.251,515.263,70.094,502.213,57.044z"></path> <rect x="156.85" y="182.497" transform="matrix(-0.7071 -0.7071 0.7071 -0.7071 298.9864 600.2225)" style="fill:#9be1a0;" width="233.907" height="111.384"></rect> <rect x="256.682" y="223.854" transform="matrix(0.7071 0.7071 -0.7071 0.7071 289.9767 -140.9735)" style="fill:#87d28d;" width="116.953" height="111.384"></rect> <path style="fill:#9be1a0;" d="M258.053,442.975L69.027,253.947l63.01-63.01c19.575-19.575,51.311-19.575,70.886,0L321.064,309.08 c19.575,19.575,19.575,51.311,0,70.886L258.053,442.975z"></path> <path style="fill:#87d28d;" d="M321.063,309.08l-59.071-59.071l-98.451,98.451l94.514,94.514l63.009-63.009 C340.637,360.39,340.638,328.654,321.063,309.08z"></path> <path style="fill:#4DA6FF;" d="M356.506,297.266l-141.771-141.77c-13.05-13.05-13.05-34.208,0-47.256l59.071-59.071 c32.624-32.624,85.518-32.624,118.142,0l70.886,70.886c32.624,32.624,32.624,85.518,0,118.142l-59.071,59.071 C390.712,310.315,369.555,310.315,356.506,297.266z"></path> <path style="fill:#4596E6;" d="M462.833,120.053L427.39,84.61L285.62,226.38l70.886,70.886c13.05,13.05,34.207,13.05,47.256,0 l59.071-59.071C495.457,205.57,495.457,152.677,462.833,120.053z"></path> <path style="fill:#4DA6FF;" d="M132.823,497.319L14.681,379.178c-19.575-19.575-19.575-51.311,0-70.886l66.159-66.159 L269.868,431.16l-66.159,66.159C184.134,516.893,152.398,516.893,132.823,497.319z"></path> <path style="fill:#4596E6;" d="M73.752,438.249l59.071,59.071c19.575,19.575,51.311,19.575,70.886,0l66.159-66.159l-94.514-94.514 L73.752,438.249z"></path> </g></svg>