<?xml version="1.0" ?><!DOCTYPE svg  PUBLIC '-//W3C//DTD SVG 1.1//EN'  'http://www.w3.org/Graphics/SVG/1.1/DTD/svg11.dtd'>
<svg enable-background="new 0 0 141.732 141.732" height="16px" id="圖層_1" version="1.1" viewBox="0 0 141.732 141.732"
 width="16px" xml:space="preserve" xmlns="http://www.w3.org/2000/svg" xmlns:xlink="http://www.w3.org/1999/xlink"><g><g><path d="M48.756,123.614V48.245c0-4.538,3.692-8.23,8.231-8.23h27.758c4.539,0,8.231,3.692,8.231,8.23v75.369    c0,6.482-5.274,11.757-11.756,11.757H60.513C54.03,135.371,48.756,130.097,48.756,123.614z M56.987,41.653    c-3.635,0-6.591,2.957-6.591,6.592v75.369c0,5.578,4.538,10.117,10.117,10.117H81.22c5.578,0,10.117-4.539,10.117-10.117V48.245    c0-3.635-2.957-6.592-6.591-6.592H56.987z" fill="#006934"/></g><g><path d="M48.756,106.929V68.456c0-0.452,0.367-0.819,0.82-0.819h42.581c0.453,0,0.82,0.367,0.82,0.819v38.473    c0,0.452-0.367,0.819-0.82,0.819H49.576C49.123,107.748,48.756,107.381,48.756,106.929z M91.337,69.276H50.396v36.832h40.941    V69.276z" fill="#006934"/></g><g><path d="M57.536,20.823v-9.542c0-1.451,0.928-2.727,2.309-3.173c7.21-2.329,14.833-2.329,22.043,0.001    c1.381,0.445,2.309,1.721,2.309,3.172v9.542c0,1.853-1.507,3.359-3.36,3.359H60.896C59.042,24.183,57.536,22.676,57.536,20.823z     M60.349,9.668c-0.703,0.229-1.174,0.877-1.174,1.613v9.542c0,0.948,0.771,1.72,1.72,1.72h19.941c0.949,0,1.721-0.771,1.721-1.72    v-9.542c0-0.736-0.472-1.385-1.174-1.611c-3.44-1.112-6.979-1.668-10.518-1.668C67.328,8.002,63.789,8.558,60.349,9.668z" fill="#006934"/></g><g><path d="M52.071,42.704c-0.271-0.343-0.226-0.837,0.103-1.124c4.994-4.376,8.2-9.791,9.271-15.657l0.495-2.708    c0.07-0.389,0.41-0.672,0.806-0.672h16.242c0.396,0,0.736,0.283,0.807,0.672l0.494,2.708c1.071,5.866,4.277,11.281,9.271,15.657    c0.329,0.287,0.374,0.781,0.103,1.124c-0.27,0.343-0.761,0.413-1.117,0.161c-1.12-0.792-2.433-1.212-3.799-1.212H56.987    c-1.366,0-2.679,0.42-3.799,1.212c-0.144,0.102-0.309,0.15-0.473,0.15C52.472,43.016,52.231,42.908,52.071,42.704z M63.429,24.183    l-0.371,2.035c-0.923,5.052-3.324,9.778-7.008,13.851c0.309-0.037,0.623-0.054,0.938-0.054h27.758    c0.315,0,0.628,0.017,0.938,0.054c-3.685-4.072-6.085-8.799-7.008-13.851l-0.372-2.035H63.429z" fill="#006934"/></g><g><path d="M60.086,28.892h21.56c0.453,0,0.82-0.368,0.82-0.82c0-0.453-0.367-0.819-0.82-0.819h-21.56    c-0.453,0-0.82,0.366-0.82,0.819C59.267,28.523,59.634,28.892,60.086,28.892z" fill="#006934"/></g><g><path d="M59.805,92.501c0-5.854,9.972-19.694,10.397-20.281c0.309-0.426,1.019-0.426,1.328,0    c0.425,0.587,10.397,14.427,10.397,20.281c0,6.099-4.962,11.06-11.061,11.06S59.805,98.6,59.805,92.501z M61.446,92.501    c0,5.194,4.226,9.42,9.42,9.42s9.421-4.226,9.421-9.42c0-4.518-7.179-15.165-9.423-18.383    C67.721,78.6,61.446,88.395,61.446,92.501z" fill="#006934"/></g></g></svg>